# xmcd
#
# Track frame offsets:
#	150
#	14517
#	29121
#	43116
#	51658
#	67987
#	83149
#	98041
#	110368
#	121550
#	131262
#	143927
#	156636
#	170156
#	183828
#	198197
#	213612
#	225036
#	238101
#	247860
#	260245
#	271694
#	280861
#	301771
#	311565
#
# Disc length: 4338 seconds
#
# Revision: 0
# Processed by: cddbd v1.5.2PL0 Copyright (c) Steve Scherf et al.
# Submitted via: EasyCDDAExtractor 12.0.1.1
#
DISCID=6010f019
DTITLE=The Norman Luboff Choir - The Cowboy's Dream
DYEAR=1965
DGENRE=Country
TTITLE0=The Cowboy's Dream
TTITLE1=Riders In The Sky
TTITLE2=Bury Me Not On The Lone Prairie
TTITLE3=The Old Chisholm Trail
TTITLE4=Red River Valley
TTITLE5=Home On The Range
TTITLE6=Colorado Trail
TTITLE7=I Ride An Old Paint
TTITLE8=Streets Of Laredo (Cowboy's Lament)
TTITLE9=Whoopie Ti Yi Yo
TTITLE10=Doney Gal
TTITLE11=Tumbling Tumbleweeds
TTITLE12=Poor Lonesome Cowboy
TTITLE13=Night Herding Song
TTITLE14=Cool Water
TTITLE15=The Last Round-Up
TTITLE16=The Railroad Corral
TTITLE17=A Prisoner For Life
TTITLE18=Goodbye Old Paint
TTITLE19=The Curtains Of Night
TTITLE20=Ten Thousand Cattle
TTITLE21=Hooray For The Cowboys
TTITLE22=Red River Shore
TTITLE23=The Rambling Cowboy
TTITLE24=The Cowboy's Prayer
EXTD=
EXTT0=
EXTT1=
EXTT2=
EXTT3=
EXTT4=
EXTT5=
EXTT6=
EXTT7=
EXTT8=
EXTT9=
EXTT10=
EXTT11=
EXTT12=
EXTT13=
EXTT14=
EXTT15=
EXTT16=
EXTT17=
EXTT18=
EXTT19=
EXTT20=
EXTT21=
EXTT22=
EXTT23=
EXTT24=
PLAYORDER=
